<?xml version="1.0" encoding="utf-8"?>
<!-- Generator: Adobe Illustrator 28.1.0, SVG Export Plug-In . SVG Version: 6.00 Build 0)  -->
<svg version="1.1" id="Layer_1" xmlns="http://www.w3.org/2000/svg" xmlns:xlink="http://www.w3.org/1999/xlink" x="0px" y="0px"
	 viewBox="0 0 800 800" style="enable-background:new 0 0 800 800;" xml:space="preserve">
<style type="text/css">
	.st0{fill:#54CE0D;}
</style>
<g>
	<path class="st0" d="M500.2,395.9c-13.4-2.3-27.5-2-41.2-1.2c-31.2,1.7-62.5,4.7-93.8,1.9c-14.8-1.4-29.8-2.8-44.8-2.5
		c-27.2,0.5-50,9.4-63.4,35.3c-6.7,12.8-8.3,26.6-7.8,40.8c1.1,40,18.4,62.8,56.6,74.2c30.6,9.1,62,10.3,93.6,9.7
		c11.7,0,23.4,0.6,35.2-0.2c24.2-1.4,48-5,70.9-13.4c23.8-8.8,38-25.5,43.1-49.7c2-9.4,3-19.2,2.8-28.8
		C550.9,429.7,529.1,400.8,500.2,395.9z M346.4,501.7c-10.2,11.1-24.8,11.2-35.3,0.5c-7.7-7.8-12-19.8-12-34.8
		c0.3-10.2,3.3-21.2,12-30.2c10.5-10.8,25.2-10.6,35.3,0.3C361.7,454.1,361.7,485.2,346.4,501.7z M488.4,502.5
		c-9.5,9.8-23.3,10.2-33.4,1.1c-17.5-15.9-17.5-51.4,0-67.5c10-9.2,23.7-8.9,33.4,0.9c8.9,9.1,11.9,20.5,12.3,32.7
		C500.3,482,497.2,493.3,488.4,502.5z"/>
	<path class="st0" d="M400,0C179.1,0,0,179.1,0,400s179.1,400,400,400s400-179.1,400-400S620.9,0,400,0z M605,435
		c-2.2,17.8-5.9,36.1-12.3,52.8c-18.8,48-56.2,74.4-105.9,82.3c-28.4,4.5-57.7,4.7-89.2,7c-28.3-2.5-59.4-2.8-89.5-8.1
		c-58.4-10.3-98.1-51.2-109.7-109.8c-5.9-29.8-7.7-59.8,1.6-89.5c4.8-15.3,12.8-28.9,23.1-41.2c1.4-1.6,2.7-3.9,2.5-5.9
		c-1.7-26.9,1.4-53.4,9.4-79.1c6.6-21.4,1.7-20.2,25.5-13.9c28.6,7.5,53.6,23,78.1,39.1c2.8,1.9,7.2,2.7,10.6,2
		c34.7-5.3,69.2-5.6,103.9,0.5c2.5,0.5,5.8-0.5,8.1-1.9c21.1-13.7,42.8-26.1,66.6-34.7c8.6-3.1,17.7-5.2,26.4-7.8
		c3.9-1.1,5.6,0.3,7,4.1c10.6,29.7,15,60.2,13.4,91.6c-0.2,1.7,0.8,4.1,1.9,5.5C603.1,358.8,609.8,395.6,605,435z"/>
</g>
</svg>
