<?xml version="1.0" encoding="utf-8"?>
<!-- Generator: Adobe Illustrator 28.0.0, SVG Export Plug-In . SVG Version: 6.00 Build 0)  -->
<svg version="1.1" id="Layer_1" xmlns="http://www.w3.org/2000/svg" xmlns:xlink="http://www.w3.org/1999/xlink" x="0px" y="0px"
	 viewBox="0 0 800 800" style="enable-background:new 0 0 800 800;" xml:space="preserve">
<style type="text/css">
	.st0{fill:#5A5A5A;}
</style>
<g>
	<g>
		<path class="st0" d="M792.8,311.6L586.1,104.9c-9.6-9.6-25.3-9.6-34.9,0L450.9,205.2c-9.6,9.6-9.6,25.3,0,34.9l18.9,18.9
			l-52.8,4.6c-5.8,0.5-11.5,1.7-17,3.5c-5.5-1.8-11.1-3-16.9-3.5l-52.8-4.6l18.9-18.9c9.6-9.6,9.6-25.3,0-34.9L248.8,104.9
			c-9.6-9.6-25.3-9.6-34.9,0L7.2,311.6c-9.6,9.6-9.6,25.3,0,34.9l100.3,100.3c9.6,9.6,25.3,9.6,34.9,0l22.3-22.3l4.6,52.8
			c1.5,17.3,9.1,33.6,21.4,45.9l148.7,148.7c40.8,40.8,83.9,37,111.8,9.1c13.2-13.2,157.3-157.3,157.8-157.8
			c12.3-12.3,19.9-28.6,21.4-45.9l4.6-52.8l22.3,22.3c9.6,9.6,25.3,9.6,34.9,0l100.3-100.3C802.4,336.9,802.4,321.3,792.8,311.6z
			 M125,394.5l-65.4-65.4l171.7-171.7l65.4,65.4C89.4,430,142.4,377.1,125,394.5z M551.9,510.6C551.8,510.6,551.8,510.6,551.9,510.6
			c-9.1,9.1-23.7,9.1-32.8,0c0,0,0,0,0,0l-39.4-39.4c-9.6-9.6-25.3-9.6-34.9,0c-9.6,9.6-9.6,25.3,0,34.9l39.5,39.5c0,0,0,0,0,0
			c9,9.1,9.1,23.7,0,32.8c-9.1,9.1-23.7,9.1-32.8,0c0,0,0,0,0,0l-39.4-39.4c-9.6-9.6-25.3-9.6-34.9,0c-9.6,9.6-9.6,25.3,0,34.9
			l39.5,39.5c0,0,0,0,0,0c9,9,9.1,23.7,0,32.8c-5.4,5.4-13.2,7.8-20.8,6.4c-8.3-1.6-11.2-5.6-21.1-15.5L225.7,488.3
			c-4.1-4.1-6.6-9.5-7.1-15.3l-8.2-94.1c10.3-10.3,57.8-57.8,74.3-74.3l94.1,8.2c5.8,0.5,11.2,3,15.3,7.1
			c36.1,36.1,148.5,148.5,157.8,157.8C560.9,486.9,560.9,501.6,551.9,510.6z M584.3,440.4c-7.7-7.7-92.4-92.4-130.4-130.4l61.5-5.4
			c17.6,17.5,69.1,69.1,74.3,74.3L584.3,440.4z M675,394.5c-23.1-23.1-166.6-166.6-171.7-171.7l65.4-65.4l171.7,171.7L675,394.5z"/>
	</g>
</g>
</svg>
