<?xml version="1.0" encoding="utf-8"?>
<!-- Generator: Adobe Illustrator 28.0.0, SVG Export Plug-In . SVG Version: 6.00 Build 0)  -->
<svg version="1.1" id="Layer_1" xmlns="http://www.w3.org/2000/svg" xmlns:xlink="http://www.w3.org/1999/xlink" x="0px" y="0px"
	 viewBox="0 0 800 800" style="enable-background:new 0 0 800 800;" xml:space="preserve">
<style type="text/css">
	.st0{fill:#5A5A5A;}
</style>
<g>
	<g>
		<path class="st0" d="M400,0C255.8,0,138.4,119.4,138.4,266.2c0,92.2,46.8,177.4,123.1,225.9v178.4c0,37.2,28.8,67.8,65.3,70.6
			c7.4,33.6,37.4,58.8,73.2,58.8c35.8,0,65.8-25.2,73.2-58.8c36.5-2.9,65.3-33.4,65.3-70.6V492.1c76.3-48.5,123.1-133.6,123.1-225.9
			C661.6,119.4,544.2,0,400,0z M400,747.4c-5.9,0-11.2-2.3-15.2-6h30.4C411.2,745.1,405.9,747.4,400,747.4z M467.6,688.8H332.4
			c-10.1,0-18.3-8.2-18.3-18.3v-16h171.8v16h0C485.9,680.6,477.7,688.8,467.6,688.8z M485.9,601.9H314.1v-30.4h171.8L485.9,601.9
			L485.9,601.9z M499.5,454.1c-8.4,4.6-13.5,13.4-13.5,23v41.8h-59.6V340.1h96.2c0.1,0,0.1,0,0.2,0c0.1,0,0.2,0,0.3,0
			c33.8,0,61.4-27.5,61.4-61.4s-27.5-61.4-61.4-61.4c-33.8,0-61.4,27.5-61.4,61.4c0,3,0.2,5.9,0.6,8.8h-124c0.4-2.9,0.6-5.8,0.6-8.8
			c0-33.8-27.5-61.4-61.4-61.4s-61.4,27.5-61.4,61.4s27.5,61.4,61.4,61.4h96.2v178.8h-59.6v-41.8c0-9.6-5.2-18.4-13.5-23
			C233,416.7,191,344.7,191,266.2c0-117.8,93.7-213.6,209-213.6s209,95.8,209,213.6C609,344.7,567,416.7,499.5,454.1z M514.2,278.7
			c0-4.8,3.9-8.8,8.8-8.8c4.8,0,8.8,3.9,8.8,8.8s-3.9,8.8-8.8,8.8C518.1,287.5,514.2,283.5,514.2,278.7z M286.3,278.7
			c0,4.8-3.9,8.8-8.8,8.8c-4.8,0-8.8-3.9-8.8-8.8s3.9-8.8,8.8-8.8C282.3,269.9,286.3,273.9,286.3,278.7z"/>
	</g>
</g>
</svg>
