<?xml version="1.0" encoding="utf-8"?>
<!-- Generator: Adobe Illustrator 28.0.0, SVG Export Plug-In . SVG Version: 6.00 Build 0)  -->
<svg version="1.1" id="Layer_1" xmlns="http://www.w3.org/2000/svg" xmlns:xlink="http://www.w3.org/1999/xlink" x="0px" y="0px"
	 viewBox="0 0 800 800" style="enable-background:new 0 0 800 800;" xml:space="preserve">
<style type="text/css">
	.st0{fill:#5A5A5A;}
</style>
<g>
	<g>
		<path class="st0" d="M400,0c-40.9,0-74.2,33.3-74.2,74.2s33.3,74.2,74.2,74.2s74.2-33.3,74.2-74.2S440.9,0,400,0z"/>
	</g>
</g>
<g>
	<g>
		<path class="st0" d="M521,274.9l-32.1-96.3c-3.6-10.7-13.5-17.8-24.7-17.8H335.8c-11.2,0-21.2,7.2-24.7,17.8L279,274.9
			c-5.6,16.9,7,34.3,24.7,34.3h192.5C514.1,309.3,526.6,291.8,521,274.9z"/>
	</g>
</g>
<g>
	<g>
		<path class="st0" d="M175.5,490.7c-40.9,0-74.2,33.3-74.2,74.2c0,40.9,33.3,74.2,74.2,74.2s74.2-33.3,74.2-74.2
			C249.7,524,216.4,490.7,175.5,490.7z"/>
	</g>
</g>
<g>
	<g>
		<path class="st0" d="M296.5,765.7l-32.1-96.3c-3.6-10.7-13.5-17.8-24.7-17.8H111.3c-11.2,0-21.2,7.2-24.7,17.8l-32.1,96.3
			c-5.6,16.9,7,34.3,24.7,34.3h192.5C289.6,800,302.2,782.5,296.5,765.7z"/>
	</g>
</g>
<g>
	<g>
		<path class="st0" d="M624.5,490.7c-40.9,0-74.2,33.3-74.2,74.2c0,40.9,33.3,74.2,74.2,74.2c40.9,0,74.2-33.3,74.2-74.2
			C698.7,524,665.4,490.7,624.5,490.7z"/>
	</g>
</g>
<g>
	<g>
		<path class="st0" d="M745.5,765.7l-32.1-96.3c-3.6-10.7-13.5-17.8-24.7-17.8H560.3c-11.2,0-21.2,7.2-24.7,17.8l-32.1,96.3
			c-5.6,16.9,7,34.3,24.7,34.3h192.5C738.6,800,751.1,782.5,745.5,765.7z"/>
	</g>
</g>
<g>
	<g>
		<path class="st0" d="M491.3,542.9l-65.3-65.3v-92.3c0-14.4-11.7-26.1-26.1-26.1c-14.4,0-26.1,11.7-26.1,26.1v92.3l-65.3,65.3
			c-10.2,10.2-10.2,26.7,0,36.9c10.2,10.2,26.7,10.2,36.9,0l54.5-54.5l54.5,54.5c10.2,10.2,26.7,10.2,36.9,0
			C501.5,569.6,501.5,553.1,491.3,542.9z"/>
	</g>
</g>
</svg>
