<?xml version="1.0" encoding="utf-8"?>
<!-- Generator: Adobe Illustrator 28.0.0, SVG Export Plug-In . SVG Version: 6.00 Build 0)  -->
<svg version="1.1" id="Layer_1" xmlns="http://www.w3.org/2000/svg" xmlns:xlink="http://www.w3.org/1999/xlink" x="0px" y="0px"
	 viewBox="0 0 800 800" style="enable-background:new 0 0 800 800;" xml:space="preserve">
<style type="text/css">
	.st0{fill:#5A5A5A;}
</style>
<g>
	<g>
		<path class="st0" d="M724,655.6c22.8-16.3,37.7-43,37.7-73.2c0-49.6-40.4-90-90-90s-90,40.4-90,90c0,30.1,14.9,56.9,37.7,73.2
			c-44.8,20-76,65-76,117.1c0,7.7,6.2,13.9,13.9,13.9c7.7,0,13.9-6.2,13.9-13.9c0-55.3,45-100.4,100.4-100.4s100.4,45,100.4,100.4
			c0,7.7,6.2,13.9,13.9,13.9s13.9-6.2,13.9-13.9C800,720.6,768.7,675.6,724,655.6z M671.7,644.5c-34.2,0-62.1-27.8-62.1-62.1
			s27.8-62.1,62.1-62.1c34.2,0,62.1,27.8,62.1,62.1S706,644.5,671.7,644.5z"/>
	</g>
</g>
<g>
	<g>
		<path class="st0" d="M489,49.8c-24.3-24-56.6-37-90.8-36.5c-69.8,1-125.8,58.6-124.9,128.4c0.4,32.5,13.1,63.2,35.7,86.5
			c15.4,15.9,23.8,36.4,23.8,57.7v16.2c0,32.6,26.5,59.2,59.2,59.2h16c32.6,0,59.2-26.5,59.2-59.2V286c0-21.4,8.4-41.9,23.8-57.6
			c23.1-23.8,35.8-55.1,35.8-88.3C526.7,105.9,513.3,73.8,489,49.8z M439.3,302.2c0,17.2-14,31.3-31.3,31.3h-16
			c-17.2,0-31.3-14-31.3-31.3v-2.2h78.6L439.3,302.2L439.3,302.2z M470.9,208.9c-17.1,17.6-27.7,39.6-30.7,63.1h-26.3v-80.4
			l41.3-41.3c5.4-5.4,5.4-14.3,0-19.7c-5.4-5.4-14.3-5.4-19.7,0L400,166.1l-35.5-35.5c-5.4-5.4-14.3-5.4-19.7,0
			c-5.4,5.4-5.4,14.3,0,19.7l41.3,41.3V272h-26.3c-3-23.5-13.7-45.6-30.8-63.2c-17.6-18.2-27.5-42.1-27.8-67.4
			c-0.7-54.5,43-99.4,97.4-100.2c0.5,0,1,0,1.4,0c26.2,0,50.7,10.1,69.4,28.5c19,18.7,29.4,43.7,29.4,70.4
			C498.8,165.9,488.9,190.4,470.9,208.9z"/>
	</g>
</g>
<g>
	<g>
		<path class="st0" d="M267.4,365.4c-5.4-5.4-14.3-5.4-19.7,0L164,449.1c-5.4,5.4-5.4,14.3,0,19.7c2.7,2.7,6.3,4.1,9.9,4.1
			c3.6,0,7.1-1.4,9.9-4.1l83.7-83.7C272.9,379.7,272.9,370.9,267.4,365.4z"/>
	</g>
</g>
<g>
	<g>
		<path class="st0" d="M636,449.1l-83.7-83.7c-5.4-5.4-14.3-5.4-19.7,0c-5.4,5.4-5.4,14.3,0,19.7l83.7,83.7c2.7,2.7,6.3,4.1,9.9,4.1
			s7.1-1.4,9.9-4.1C641.4,463.4,641.4,454.6,636,449.1z"/>
	</g>
</g>
<g>
	<g>
		<path class="st0" d="M400,394.6c-7.7,0-13.9,6.2-13.9,13.9v53.2c0,7.7,6.2,13.9,13.9,13.9c7.7,0,13.9-6.2,13.9-13.9v-53.2
			C413.9,400.8,407.7,394.6,400,394.6z"/>
	</g>
</g>
<g>
	<g>
		<circle class="st0" cx="639.9" cy="551.1" r="13.9"/>
	</g>
</g>
<g>
	<g>
		<circle class="st0" cx="691.1" cy="551.1" r="13.9"/>
	</g>
</g>
<g>
	<g>
		<path class="st0" d="M452.2,655.6c22.8-16.3,37.7-43,37.7-73.2c0-49.6-40.4-90-90-90s-90,40.4-90,90c0,30.1,14.9,56.9,37.7,73.2
			c-44.8,20-76,65-76,117.1c0,7.7,6.2,13.9,13.9,13.9c7.7,0,13.9-6.2,13.9-13.9c0-55.3,45-100.4,100.4-100.4s100.4,45,100.4,100.4
			c0,7.7,6.2,13.9,13.9,13.9c7.7,0,13.9-6.2,13.9-13.9C528.3,720.6,497,675.6,452.2,655.6z M400,644.5c-34.2,0-62.1-27.8-62.1-62.1
			s27.8-62.1,62.1-62.1c34.2,0,62.1,27.8,62.1,62.1C462.1,616.6,434.2,644.5,400,644.5z"/>
	</g>
</g>
<g>
	<g>
		<circle class="st0" cx="374.4" cy="551.1" r="13.9"/>
	</g>
</g>
<g>
	<g>
		<circle class="st0" cx="425.6" cy="551.1" r="13.9"/>
	</g>
</g>
<g>
	<g>
		<path class="st0" d="M180.5,655.6c22.8-16.3,37.7-43.1,37.7-73.2c0-49.6-40.4-90-90-90s-90,40.4-90,90c0,30.1,14.9,56.9,37.7,73.2
			c-44.8,20-76,65-76,117.1c0,7.7,6.2,13.9,13.9,13.9s13.9-6.2,13.9-13.9c0-55.3,45-100.4,100.4-100.4s100.4,45,100.4,100.4
			c0,7.7,6.2,13.9,13.9,13.9s13.9-6.2,13.9-13.9C256.5,720.6,225.2,675.6,180.5,655.6z M128.3,644.5c-34.2,0-62.1-27.8-62.1-62.1
			s27.8-62.1,62.1-62.1c34.2,0,62.1,27.8,62.1,62.1S162.5,644.5,128.3,644.5z"/>
	</g>
</g>
<g>
	<g>
		<circle class="st0" cx="160.1" cy="551.1" r="13.9"/>
	</g>
</g>
<g>
	<g>
		<circle class="st0" cx="108.9" cy="551.1" r="13.9"/>
	</g>
</g>
</svg>
