<?xml version="1.0" encoding="utf-8"?>
<!-- Generator: Adobe Illustrator 28.0.0, SVG Export Plug-In . SVG Version: 6.00 Build 0)  -->
<svg version="1.1" id="Layer_1" xmlns="http://www.w3.org/2000/svg" xmlns:xlink="http://www.w3.org/1999/xlink" x="0px" y="0px"
	 viewBox="0 0 800 800" style="enable-background:new 0 0 800 800;" xml:space="preserve">
<style type="text/css">
	.st0{fill:#B286BC;}
	.st1{fill:#2E93A5;}
	.st2{fill:#FFCE47;}
	.st3{fill:#FF80B1;}
	.st4{fill:#5A5A5A;}
</style>
<path class="st0" d="M400,400h288.9c0,159.7-129.4,288.9-288.9,288.9V400L400,400z"/>
<path class="st1" d="M400,111.1V400H111.1C111.1,240.3,240.3,111.1,400,111.1z"/>
<path class="st2" d="M400,400v288.9c-159.7,0-288.9-129.4-288.9-288.9H400L400,400z"/>
<path class="st3" d="M688.9,400H400V111.1C559.7,111.1,688.9,240.3,688.9,400z"/>
<path class="st4" d="M748,371.3L748,371.3c-17.5,0-32.5-12.4-35.7-29.6c-23.9-128.5-125.5-230.1-254-254
	c-17.2-3.2-29.6-18.2-29.6-35.7v0c0-22.8,20.7-39.9,43-35.8c157.8,29.4,282.7,154.2,312.1,312.1C788,350.6,770.8,371.3,748,371.3z
	 M371.3,52L371.3,52c0,17.5-12.4,32.5-29.6,35.7c-128.5,23.9-230.1,125.5-254,254c-3.2,17.2-18.2,29.6-35.7,29.6h0
	c-22.8,0-39.9-20.7-35.8-43C45.6,170.4,170.4,45.6,328.3,16.2C350.6,12,371.3,29.2,371.3,52z M52,428.7L52,428.7
	c17.5,0,32.5,12.4,35.7,29.6c23.9,128.5,125.5,230.1,254,254c17.2,3.2,29.6,18.2,29.6,35.7v0c0,22.8-20.7,39.9-43,35.8
	C170.4,754.4,45.6,629.6,16.2,471.7C12,449.4,29.2,428.7,52,428.7z M428.7,748L428.7,748c0-17.5,12.4-32.5,29.6-35.7
	c128.5-23.9,230.1-125.5,254-254c3.2-17.2,18.2-29.6,35.7-29.6h0c22.8,0,39.9,20.7,35.8,43c-29.4,157.8-154.2,282.7-312.1,312.1
	C449.4,788,428.7,770.8,428.7,748z"/>
</svg>
