<?xml version="1.0" encoding="utf-8"?>
<!-- Generator: Adobe Illustrator 28.0.0, SVG Export Plug-In . SVG Version: 6.00 Build 0)  -->
<svg version="1.1" id="Capa_1" xmlns="http://www.w3.org/2000/svg" xmlns:xlink="http://www.w3.org/1999/xlink" x="0px" y="0px"
	 viewBox="0 0 800 800" style="enable-background:new 0 0 800 800;" xml:space="preserve">
<style type="text/css">
	.st0{fill:#5A5A5A;}
</style>
<g>
	<path class="st0" d="M748.9,0H51.1C22.9,0,0,22.9,0,51.1v697.9C0,777.1,22.9,800,51.1,800h697.8c28.2,0,51.1-22.9,51.1-51.1V51
		C799.9,22.9,777.1,0,748.9,0z M363.2,450.9c0,22.2-2.1,41.2-6.3,56.8c-4.2,15.6-10.6,28.2-19.1,38c-8.5,9.7-19.2,16.8-32,21.3
		c-12.8,4.5-27.6,6.7-44.5,6.7c-14.9,0-28.3-2.4-40.4-7c-12.1-4.7-22.3-11.3-30.7-20.1c-8.5-8.7-15-19.3-19.5-31.7
		c-4.6-12.4-6.9-26.3-6.9-41.5v-10h47.9c0,44.6,16.5,66.9,49.6,66.9c8.5,0,16-1,22.6-3c6.6-2.1,12.2-5.8,16.8-11.5
		c4.6-5.6,8.1-13.3,10.4-23.4c2.4-10,3.6-23.1,3.6-39.2V203.8h48.5L363.2,450.9L363.2,450.9z M630.7,523.3
		c-4.9,10.1-12,18.9-21,26.5c-9.1,7.5-20.2,13.4-33.2,17.7c-13,4.2-27.7,6.3-43.8,6.3c-71.6,0-109.4-28.3-113.2-84.8h47.1
		c0.2,32,22.1,48,65.6,48c9.6,0,18.3-1,25.7-3.2c7.4-2.1,13.7-5,18.6-8.8c5-3.7,8.7-8.2,11.3-13.3c2.5-5,3.9-10.5,3.9-16.6
		c0-6.3-1-11.3-2.9-15.1c-1.9-3.8-5.7-7.3-11.3-10.2c-5.6-2.9-13.3-5.8-23.2-8.6c-9.9-2.9-22.9-6.5-38.9-10.7
		c-15.6-3.9-29-7.7-40.3-11.6c-11.3-3.8-20.6-8.5-27.8-14c-7.3-5.5-12.7-12.3-16.1-20.4c-3.5-8.1-5.2-18.3-5.2-30.6
		c0-10.8,2.3-20.9,6.9-30.2s11.1-17.3,19.7-24.1c8.5-6.8,18.8-12.1,30.9-16c12.2-3.9,25.7-5.8,40.5-5.8
		c69.2,0,104.4,24.6,105.5,73.8H583c-1.7-24.6-20.2-36.9-55.6-36.9c-7.9,0-15.1,0.8-21.9,2.4c-6.7,1.6-12.5,3.8-17.5,6.7
		c-5,2.9-8.8,6.6-11.6,10.9c-2.7,4.3-4.1,9.3-4.1,15c0,5.2,0.7,9.4,1.9,12.7c1.3,3.3,4.4,6.4,9.2,9.3c4.9,2.8,12.1,5.6,21.6,8.4
		c9.5,2.8,22.6,6.2,39.1,10.2c16,3.8,29.8,7.8,41.6,12c11.7,4.1,21.5,9.2,29.3,15c7.8,5.8,13.6,13,17.4,21.5
		c3.7,8.4,5.6,19,5.6,31.7C638.1,502.2,635.6,513.2,630.7,523.3z"/>
</g>
</svg>
