<?xml version="1.0" encoding="utf-8"?>
<!-- Generator: Adobe Illustrator 28.0.0, SVG Export Plug-In . SVG Version: 6.00 Build 0)  -->
<svg version="1.1" id="Layer_1" xmlns="http://www.w3.org/2000/svg" xmlns:xlink="http://www.w3.org/1999/xlink" x="0px" y="0px"
	 viewBox="0 0 1080 1080" style="enable-background:new 0 0 1080 1080;" xml:space="preserve">
<style type="text/css">
	.st0{fill:#2E93A5;}
	.st1{fill:#CCCCCC;}
	.st2{fill:#FFFFFF;}
</style>
<g>
	<circle class="st0" cx="540" cy="540" r="445.5"/>
</g>
<g>
	<path class="st1" d="M540,68.1c63.7,0,125.5,12.5,183.7,37.1c56.2,23.8,106.7,57.8,150,101.2s77.4,93.8,101.2,150
		c24.6,58.2,37.1,120,37.1,183.7s-12.5,125.5-37.1,183.7c-23.8,56.2-57.8,106.7-101.2,150c-43.4,43.4-93.8,77.4-150,101.2
		c-58.2,24.6-120,37.1-183.7,37.1s-125.5-12.5-183.7-37.1c-56.2-23.8-106.7-57.8-150-101.2c-43.4-43.4-77.4-93.8-101.2-150
		c-24.6-58.2-37.1-120-37.1-183.7c0-63.7,12.5-125.5,37.1-183.7c23.8-56.2,57.8-106.7,101.2-150c43.4-43.4,93.8-77.4,150-101.2
		C414.5,80.5,476.3,68.1,540,68.1 M540,25.3C255.8,25.3,25.3,255.8,25.3,540c0,284.2,230.4,514.7,514.7,514.7
		c284.2,0,514.7-230.4,514.7-514.7C1054.7,255.8,824.2,25.3,540,25.3L540,25.3z"/>
</g>
<path class="st2" d="M750.1,252.8H496.7c-2.6,0-5,1.4-6.3,3.6L323.6,542c-2.8,4.9,0.7,11,6.3,11h150.8c5.4,0,8.9,5.7,6.5,10.6
	L360.7,816.6c-3.6,7.3,5.6,14.1,11.5,8.6l356.9-334.7c4.8-4.5,1.6-12.6-5-12.6H560.1c-6.5,0-9.8-7.9-5.2-12.5l200.3-200.2
	C759.8,260.6,756.6,252.8,750.1,252.8z"/>
</svg>
